<?xml version="1.0" encoding="utf-8"?>
<!-- Generator: Adobe Illustrator 17.0.0, SVG Export Plug-In . SVG Version: 6.00 Build 0)  -->
<!DOCTYPE svg PUBLIC "-//W3C//DTD SVG 1.1//EN" "http://www.w3.org/Graphics/SVG/1.1/DTD/svg11.dtd">
<svg version="1.1" id="Capa_1" xmlns="http://www.w3.org/2000/svg" xmlns:xlink="http://www.w3.org/1999/xlink" x="0px" y="0px"
	 width="17px" height="17px" viewBox="0 0 40 40" enable-background="new 0 0 40 40" xml:space="preserve">
<g>
	<g id="Instagram" fill="#0055FF">
		<path d="M7,12.2c-0.4,0-0.7-0.3-0.7-0.7V5.2c0-0.4,0.3-0.7,0.7-0.7s0.7,0.3,0.7,0.7v6.3C7.7,11.9,7.4,12.2,7,12.2z"/>
		<path d="M9.4,12.2c-0.4,0-0.7-0.3-0.7-0.7V4.7C8.7,4.3,9,4,9.4,4c0.4,0,0.7,0.3,0.7,0.7v6.9C10.1,11.9,9.8,12.2,9.4,12.2z"/>
		<path d="M11.8,12.2c-0.4,0-0.7-0.3-0.7-0.7V4.7c0-0.4,0.3-0.7,0.7-0.7c0.4,0,0.7,0.3,0.7,0.7v6.9C12.5,11.9,12.2,12.2,11.8,12.2z"
			/>
		<path d="M29.4,36.9H11.5c-5.3,0-8.4-2.8-8.4-7.7V11.6c0-5.1,3-8.5,7.5-8.5H30c3.3,0,6.9,3.2,6.9,8.3v17.7
			C36.9,33.5,33.6,36.9,29.4,36.9z M10.6,4.5c-4.5,0-6.1,3.8-6.1,7.1v17.6c0,5.2,3.8,6.3,7,6.3h17.9c3.5,0,6.1-2.8,6.1-6.4V11.4
			c0-4.3-2.9-6.9-5.5-6.9H10.6z"/>
		<path d="M20,13.8c-3,0-5.4,2.4-5.4,5.4c0,3,2.4,5.4,5.4,5.4c3,0,5.4-2.4,5.4-5.4C25.4,16.3,23,13.8,20,13.8z M20,21.9
			c-1.5,0-2.7-1.2-2.7-2.7s1.2-2.7,2.7-2.7c1.5,0,2.7,1.2,2.7,2.7S21.5,21.9,20,21.9z"/>
		<path d="M20,27.8c-4.7,0-8.6-3.8-8.6-8.6s3.8-8.6,8.6-8.6s8.6,3.8,8.6,8.6S24.7,27.8,20,27.8z M20,12.1c-4,0-7.2,3.2-7.2,7.2
			s3.2,7.2,7.2,7.2s7.2-3.2,7.2-7.2S24,12.1,20,12.1z"/>
		<rect x="26.3" y="13.6" width="9.9" height="1.5"/>
		<rect x="4.1" y="13.6" width="9.3" height="1.5"/>
		<path d="M32.2,10.2c0,0.9-0.7,1.6-1.6,1.6h-2.3c-0.9,0-1.6-0.7-1.6-1.6V7.9c0-0.9,0.7-1.6,1.6-1.6h2.3c0.9,0,1.6,0.7,1.6,1.6V10.2
			z"/>
	</g>
</g>
</svg>
