<?xml version="1.0" encoding="utf-8"?>
<!-- Generator: Adobe Illustrator 17.0.0, SVG Export Plug-In . SVG Version: 6.00 Build 0)  -->
<!DOCTYPE svg PUBLIC "-//W3C//DTD SVG 1.1//EN" "http://www.w3.org/Graphics/SVG/1.1/DTD/svg11.dtd">
<svg version="1.1" id="Capa_1" xmlns="http://www.w3.org/2000/svg" xmlns:xlink="http://www.w3.org/1999/xlink" x="0px" y="0px"
	 width="17px" height="17px" viewBox="0 0 40 40" enable-background="new 0 0 40 40" xml:space="preserve">
<path d="M22.6,27.5c-2.1,0-4.1-1.1-4.7-2.4c0,0-1.1,4.5-1.4,5.3c-0.8,3.1-3.3,6.1-3.5,6.4c-0.1,0.2-0.4,0.1-0.5-0.1
	c-0.1-0.4-0.7-4.2,0.1-7.4c0.4-1.6,2.5-10.6,2.5-10.6s-0.6-1.2-0.6-3.1c0-2.9,1.7-5,3.7-5c1.8,0,2.6,1.3,2.6,2.9
	c0,1.8-1.1,4.4-1.7,6.9c-0.5,2.1,1,3.7,3.1,3.7c3.7,0,6.2-4.7,6.2-10.3c0-4.3-2.9-7.4-8.1-7.4c-5.9,0-9.6,4.4-9.6,9.3
	c0,1.7,0.5,2.9,1.3,3.8c0.4,0.4,0.4,0.6,0.3,1.1c-0.1,0.4-0.3,1.2-0.4,1.6c-0.1,0.5-0.5,0.7-1,0.5c-2.7-1.1-4-4.1-4-7.4
	c0-5.5,4.7-12.1,13.9-12.1c7.4,0,12.3,5.4,12.3,11.1C33.1,21.8,28.9,27.5,22.6,27.5z" fill="#0055FF"/>
</svg>
