<?xml version="1.0" encoding="utf-8"?>
<!-- Generator: Adobe Illustrator 17.0.0, SVG Export Plug-In . SVG Version: 6.00 Build 0)  -->
<!DOCTYPE svg PUBLIC "-//W3C//DTD SVG 1.1//EN" "http://www.w3.org/Graphics/SVG/1.1/DTD/svg11.dtd">
<svg version="1.1" id="Capa_1" xmlns="http://www.w3.org/2000/svg" xmlns:xlink="http://www.w3.org/1999/xlink" x="0px" y="0px"
	 width="17px" height="17px" viewBox="0 0 40 40" enable-background="new 0 0 40 40" xml:space="preserve">
<path d="M33.5,13.1c0,0.3,0,0.6,0,0.9c0,9.2-7,19.7-19.7,19.7c-3.9,0-7.6-1.1-10.6-3.1c0.5,0.1,1.1,0.1,1.7,0.1c3.3,0,6.2-1.1,8.6-3
	c-3-0.1-5.6-2.1-6.5-4.8c0.4,0.1,0.9,0.1,1.3,0.1c0.6,0,1.2-0.1,1.8-0.2c-3.2-0.6-5.6-3.4-5.6-6.8c0,0,0-0.1,0-0.1
	c0.9,0.5,2,0.8,3.1,0.9c-1.9-1.2-3.1-3.4-3.1-5.8c0-1.3,0.3-2.5,0.9-3.5c3.4,4.2,8.5,7,14.3,7.3c-0.1-0.5-0.2-1-0.2-1.6
	c0-3.8,3.1-6.9,6.9-6.9c2,0,3.8,0.8,5.1,2.2c1.6-0.3,3.1-0.9,4.4-1.7c-0.5,1.6-1.6,3-3.1,3.8c1.4-0.2,2.7-0.5,4-1.1
	C36,10.9,34.8,12.1,33.5,13.1z" fill="#0055FF"/>
</svg>
