<?xml version="1.0" encoding="utf-8"?>
<!-- Generator: Adobe Illustrator 17.1.0, SVG Export Plug-In . SVG Version: 6.00 Build 0)  -->
<!DOCTYPE svg PUBLIC "-//W3C//DTD SVG 1.1//EN" "http://www.w3.org/Graphics/SVG/1.1/DTD/svg11.dtd">
<svg version="1.1" id="Layer_1" xmlns="http://www.w3.org/2000/svg" xmlns:xlink="http://www.w3.org/1999/xlink" x="0px" y="0px"
	 viewBox="0 0 415 138" enable-background="new 0 0 415 138" xml:space="preserve">
<g>
	<path fill="#FFFFFF" d="M133.9,47.9c-2.4,0-5,0.9-7.6,2.7l-0.1,0.1c-2.5,1.7-7.1,4.8-10.1,9.3l-0.9,1.4V49.5H93.7v2l1,0
		c1.6,0.2,2,0.4,2.6,0.8l0.2,0.2c0.7,0.5,1.3,1.3,1.6,2.3c0.3,0.8,0.4,2.7,0.4,5.7c0,0,0,24.8,0,29.1c0,7.1-3,9.4-8.5,9.4
		c-2.9,0-5.6-0.1-7.9-2.2c-1.7-1.5-3.9-4.3-6.5-10.2L49.2,24.3h-1.1L20.8,85.1c-2.6,5.8-4.8,9.7-6.5,11.5c-1.8,1.8-4,3-6.8,3.4
		l-0.4,0.1c-0.4,0-0.6,0.1-0.8,0.2c-0.1,0.2-0.2,0.4-0.2,0.5c0,0.6,0.4,1.3,0.9,1.3h25.9l0-2.1c-4-0.3-6.5-0.8-7.5-1.4
		c-1.7-1-2.6-2.6-2.6-4.7c0-1.6,0.5-3.7,1.6-6.1l3.2-7.4h26.9l4,9.5c1.4,3.3,1.6,4,1.7,4.3c0.2,0.7,0.3,1.4,0.3,2
		c0,1.1-0.4,2-1.2,2.6c-1.2,0.8-3.3,1.2-6.3,1.2h-1.5v2.1h70.4v-2c-2.1-0.1-3.6-0.4-4.5-0.9c-0.9-0.5-1.5-1.2-2-2.2
		c-0.3-0.6-0.4-2-0.4-4.1l-0.1-3.1V77.6c0-4.4,0.6-8.4,1.8-12c0.8-2.4,3-4.2,4.5-5.5c1-0.8,3-1.2,4.1-1.2c0.5,0,0.9,0.1,1.3,0.3
		c0.1,0.1,0.4,0.2,2.6,2.1c1.5,1.3,3.2,1.9,5.2,1.9c1.7,0,3.2-0.7,4.4-2.1c1.2-1.4,1.8-3.4,1.8-5.9c0-2.4-0.6-4.2-1.9-5.5
		C137.7,48.6,136,47.9,133.9,47.9z M29.6,76.2L41.3,50l11.4,26.3H29.6z"/>
	<path fill="#FFFFFF" d="M179.1,93.5c-1.6,0.9-3.4,1.3-5.2,1.3c-2.8,0-5.3-0.8-7.3-2.4c-2.7-2.2-4.9-5.6-6.5-10.1
		c-1.6-4.5-2.4-9.3-2.4-14.2c0-5.9,1-10.4,2.9-13.3c1.3-1.9,2.8-2.9,4.6-2.9c1.2,0,2.2,0.5,3,1.4c0.9,0.9,1.4,2.6,1.6,4.9
		c0.3,3.8,1.2,6.3,2.7,7.8c1.4,1.5,3.3,2.2,5.5,2.2c2.1,0,3.8-0.6,5.1-1.9c1.3-1.3,1.9-3,1.9-5.1c0-3.4-1.6-6.4-4.8-9.2
		s-7.6-4.1-13-4.1c-8.1,0-14.5,3.3-19.1,9.8c-3.8,5.4-5.7,11.8-5.7,18.9c0,7.4,2.1,13.8,6.3,19.1c4.2,5.3,9.8,7.9,16.8,7.9
		c4.1,0,8.1-1.1,11.8-3.4c3.7-2.3,6.8-5.8,9.3-10.4l-1.7-1.4C182.7,90.9,180.7,92.6,179.1,93.5z"/>
	<path fill="#FFFFFF" d="M278.1,89c-2,3.1-4.3,5.3-7,6.8c-2.7,1.4-6.1,2.1-10.1,2.1h-6.4c-3.6,0-5.9-0.2-6.8-0.5
		c-1.3-0.5-2.2-1.3-2.7-2.4c-0.5-1.1-0.7-3.5-0.7-7.5V38.9c0-3.8,0.2-6.2,0.6-7.1c0.6-1.3,1.3-2.2,2.3-2.7c1.3-0.8,3.1-1.2,5.3-1.2
		h3.3v-2.1h-39.7v2.1h1.5c2.1,0,3.8,0.4,5.1,1.1c1.2,0.7,2.1,1.6,2.5,2.6c0.4,1,0.6,3.4,0.6,7.3v50.2c0,3.9-0.2,6.2-0.6,7.1
		c-0.5,1.3-1.3,2.2-2.3,2.7c-1.3,0.8-3.1,1.2-5.3,1.2h-1.5v2.1h66.7l2.9-26.8h-2.3C282,81.3,280.1,85.9,278.1,89z"/>
	<path fill="#FFFFFF" d="M339.4,95.6c-0.5,0-0.9-0.2-1.3-0.4c-0.4-0.3-0.7-0.8-0.8-1.4c-0.2-0.6-0.3-2.1-0.3-4.5V68.9
		c0-5.7-0.3-9.3-0.8-10.9c-0.9-2.5-2.8-4.8-5.7-6.9c-2.9-2.1-6.9-3.2-11.8-3.2c-4.1,0-8.1,0.7-11.9,2c-3.8,1.3-6.8,3.2-8.9,5.7
		c-2.1,2.4-3.2,5-3.2,7.7c0,1.9,0.8,3.6,2.4,5c1.6,1.4,3.6,2.1,5.9,2.1c2.2,0,4-0.7,5.4-1.9c1.4-1.3,2.1-2.9,2.1-4.7
		c0-1.5-0.7-3.1-2.1-4.7c-1-1.2-1.6-2.1-1.6-2.9c0-0.9,0.5-1.7,1.5-2.4c1.6-1.1,3.6-1.6,6-1.6c1.5,0,2.9,0.4,4.1,1.2
		c1.2,0.8,2,1.7,2.4,2.7c0.4,1,0.6,3.6,0.6,7.5v5.3L321,69c-11.4,5.2-18.9,9.5-22.3,12.7c-3.4,3.2-5.2,6.8-5.2,10.8
		c0,2.9,1,5.4,3,7.4c2,2,4.5,3,7.5,3c4.9,0,10.5-2.7,16.6-7.9l0.7-0.6l0.2,0.8c0.5,2.4,1.5,4.3,3,5.5c1.7,1.4,4,2.1,7,2.1
		c2.5,0,4.8-0.6,6.8-1.9c2-1.3,4-3.3,5.8-6l-1.7-1.4C341.4,94.9,340.4,95.6,339.4,95.6z M321.3,90.2l-0.2,0.1c-2.4,2-4.5,3-6.3,3
		c-1.7,0-3-0.5-3.9-1.5c-1.2-1.3-1.9-2.8-1.9-4.6c0-2.1,0.7-4.1,2.2-6.1c2.1-2.8,5.2-5.6,9.4-8.1l0.8-0.5V90.2z"/>
	<path fill="#FFFFFF" d="M400.7,60.2c-1.8-3.9-4.3-6.9-7.5-9c-3.2-2.1-6.6-3.2-10.2-3.2c-4.9,0-9.5,2-13.7,6l-0.8,0.8V25.8h-22.8
		v2.1c1.9,0.1,3.3,0.4,4.1,0.9c0.8,0.5,1.4,1.3,1.8,2.3c0.3,0.7,0.4,2.6,0.4,5.6v65.7c0,0.6,0.5,1,1,1c0.2,0,0.5-0.1,0.8-0.3
		c1-1,5.1-3.1,8.9-3.1c2.9,0,4.5,0.8,6.1,1.6c0.5,0.2,1,0.5,1.5,0.7c2.2,0.9,4.8,1.4,7.6,1.4c4.9,0,9.3-1.2,13.1-3.7
		c3.8-2.4,6.9-6,9.2-10.7c2.3-4.7,3.4-9.9,3.4-15.6C403.4,68.6,402.5,64,400.7,60.2z M385.4,91.7c-0.9,3.2-2.1,5.4-3.4,6.5
		c-1.4,1.1-3,1.6-4.9,1.6c-2.2,0-4-0.7-5.5-2.1c-1.4-1.4-2.3-3.2-2.7-5.4c-0.2-1.3-0.3-4.4-0.3-9.1V59.8l0.1-0.1
		c2.9-3.5,6-5.3,9.2-5.3c2.5,0,4.4,1.1,5.9,3.3c2,3,3,8.6,3,16.6C386.8,82.6,386.3,88.4,385.4,91.7z"/>
</g>
</svg>
